PathFileType	4	(X/Y/Z)	Patient4_TMGait_0pt8_01_right_36.trc.trc
DataRate	CameraRate	NumFrames	NumMarkers	Units	OrigDataRate	OrigDataStartFrame	OrigNumFrames
85.365853658537	85.365853658537	4	33	mm	85.365853658537	106	       141
Frame#	Time	Sacral			L.Shoulder			Chest			R.Shoulder			Neck			R.ASIS			L.ASIS			R.Thigh.Superior			R.Thigh.Lateral			R.Thigh.Inferior			R.Patella			L.Thigh.Superior			L.Thigh.Lateral			L.Thigh.Inferior			L.Patella			L.Shank.Superior			L.Shank.Lateral			L.Shank.Inferior			R.Shank.Superior			R.Shank.Lateral			R.Shank.Inferior			R.Heel			R.Midfoot.Superior			R.Midfoot.Lateral			R.Toe			L.Heel			L.Midfoot.Lateral			L.Midfoot.Superior			L.Toe			L.Elbow			L.Wrist			R.Elbow			R.Wrist			
		X1	Y1	Z1	X2	Y2	Z2	X3	Y3	Z3	X4	Y4	Z4	X5	Y5	Z5	X6	Y6	Z6	X7	Y7	Z7	X8	Y8	Z8	X9	Y9	Z9	X10	Y10	Z10	X11	Y11	Z11	X12	Y12	Z12	X13	Y13	Z13	X14	Y14	Z14	X15	Y15	Z15	X16	Y16	Z16	X17	Y17	Z17	X18	Y18	Z18	X19	Y19	Z19	X20	Y20	Z20	X21	Y21	Z21	X22	Y22	Z22	X23	Y23	Z23	X24	Y24	Z24	X25	Y25	Z25	X26	Y26	Z26	X27	Y27	Z27	X28	Y28	Z28	X29	Y29	Z29	X30	Y30	Z30	X31	Y31	Z31	X32	Y32	Z32	X33	Y33	Z33	

106	41.550000000000	833.127156317105	1013.911423269393	418.497247716907	1028.207365748529	1446.985374249015	258.881406577928	1120.908480495058	1368.684545927908	422.351793273103	1028.461082514158	1434.803378999121	594.926666303195	1003.395419507233	1500.981415801502	417.096791463975	1055.052959652263	952.911214253438	545.743764503899	1056.818342795485	968.198171230545	269.446348983246	1151.478260636219	803.943245480121	513.695181450349	1132.163713143145	680.627404532766	590.863476934775	1224.448952339705	651.300915365815	510.099488225424	1259.490303025468	541.704793986851	536.225037340535	1082.667382710200	744.904812206060	305.242605161501	980.045232791820	637.191871630673	246.253864729513	1053.177233254291	552.120574206992	312.416087207993	1045.880359286785	484.899591912377	324.849809063431	1017.370335348658	414.854601603449	318.107259278682	923.122510093364	302.833757619946	271.908348533720	968.507275536706	192.041203617271	346.618894295250	1193.099025384761	457.280374011313	544.141984364971	1075.625045546961	400.804858398996	598.459302841893	1082.247560201276	289.088734915507	553.625662746559	896.515018163709	203.838855101972	514.075327133962	1065.949442229346	159.750537638112	569.648913038274	953.899291930867	149.207293521000	592.609039979690	1136.015455801325	50.948907769812	600.093282410050	836.548999389701	39.217087303363	396.360738640496	907.321941331335	35.751832264374	312.938080260007	992.191510807890	96.427113865658	336.751060525279	1119.151358307840	42.347794028128	302.905236775348	1073.719547454635	1119.883214266125	97.073354404860	1309.420339035397	1011.883088481313	124.910512185826	964.631347116138	1082.452200529605	687.337972821876	1040.520409439389	832.560102208213	698.371752889858	
107	41.561714285714	832.104446230815	1013.778022288716	417.423739009344	1029.812063577715	1447.025295095080	258.675912027082	1120.955665548821	1368.081880112005	422.706136405165	1027.468714445993	1434.254566162123	594.606477545141	1003.567791433526	1500.764493819872	416.727026238364	1053.741930955483	953.046298836540	545.524343562630	1055.997710833006	967.937970496567	269.053793001914	1151.172584932457	806.163629734609	513.443025087522	1133.542994503420	682.421012402076	590.722837028808	1226.060302998556	654.280392061075	510.165964251844	1263.014154660515	546.487615298024	536.342075736274	1078.779090168899	743.634204916119	305.109173757303	974.398724374985	637.325649745150	245.566904055926	1045.902566630119	551.160559574707	311.729317374164	1037.614315840857	484.355496230312	324.020135690327	1009.016809316039	414.698640262557	317.373533970481	914.265815180197	302.996446570801	271.356438823405	959.362571667115	192.066053033276	346.165208246403	1200.909101818570	459.870679393994	544.174096417637	1087.514175450842	396.650001813014	599.195503187129	1100.300788119143	285.594393265403	553.949548693694	919.621201560771	189.247549561979	515.422381033467	1091.979708408795	156.106718249295	570.432804083470	980.783830413911	138.727561768251	593.916971786698	1168.627289311521	51.794704232063	600.744909473537	827.155103572893	39.398066425810	396.251477762373	897.929333417132	35.752414682862	312.915111711290	982.866347678270	96.397736654873	336.529526857758	1109.768769018488	42.104117929356	302.854352782146	1081.907548335194	1122.235062560316	95.982854237667	1323.397727885370	1029.388901330210	125.695073909153	956.351613749600	1083.517742883928	686.231187294341	1013.449779495279	828.438520671798	698.528909607436	
108	41.573428571429	831.224941805094	1013.492241263839	416.550311332699	1031.320934884079	1446.836642061896	258.608852083702	1121.104790569292	1367.288021822516	423.094588210059	1026.769173504179	1433.563329426524	594.407105957535	1003.825243251570	1500.342508214688	416.467674147678	1052.640318756727	952.866854883553	545.309978814631	1054.953493444776	967.426820767083	268.771975148509	1150.570372171155	807.445070402851	513.319400819258	1133.991275453430	683.292800075336	590.680764779853	1226.721002201359	656.051925815744	510.439444884264	1265.203379300197	550.295348666519	536.522436504219	1074.946539861963	742.312597101778	304.840228099676	968.761746108550	637.423861842490	244.897665961248	1038.726921224788	550.200526232027	310.967487488213	1029.497189397424	483.801244565390	323.114680800965	1000.751028059963	414.529955318864	316.616843234536	905.427451483365	303.185468043158	270.823742383444	950.246455668390	192.092402723593	345.715428386103	1207.709724536044	461.816236899504	544.325061435191	1099.229673063835	391.818995628919	600.382109401168	1118.370500355536	281.854015777878	554.657751833955	943.872051327273	174.294051746322	517.481435496538	1118.427715006772	152.499111233264	571.536188984550	1008.678796000495	128.254485758308	595.814910246050	1201.510968455787	53.368632463246	601.670746553619	817.768273750244	39.590310042079	396.144877067252	888.538449072855	35.758213492160	312.901497306341	973.545592140366	96.373334407174	336.309512218785	1100.379451781627	41.869244351271	302.804535276168	1089.914670528794	1124.493021243449	95.116767035473	1336.003208623714	1046.609398440381	126.773403299527	947.657873355107	1084.880218729669	685.122570991598	987.335880981681	826.400237908505	698.473170075432	
109	41.585142857143	830.518016309805	1013.043048979653	415.890047808601	1032.691218692531	1446.415243344314	258.669989066174	1121.343475574821	1366.312466071906	423.501000570688	1026.364861290724	1432.747586576007	594.323230678786	1004.157102004711	1499.714874739388	416.307066370789	1051.782910093671	952.373140382915	545.118296806291	1053.757642223207	966.692027309315	268.598535421699	1149.678160655249	807.725211214187	513.320621329634	1133.496082590610	683.189677358957	590.745958529596	1226.407699296654	656.537125658719	510.883770006929	1266.060211688953	553.041524925952	536.706859273935	1071.188872705891	740.933146135785	304.420570597073	963.153458097204	637.481862350295	244.262863693051	1031.686651820361	549.239012751805	310.141935295678	1021.567453064412	483.219601456345	322.149513729466	992.596747689896	414.341382085497	315.847061286978	896.617875517861	303.405335737206	270.319160846044	941.168961150152	192.118246308198	345.268018579092	1213.448187686556	463.093828899310	544.556171889479	1110.700000442160	386.424269745606	601.958762985556	1136.304154451065	278.003017423434	555.680485249778	969.135344055208	159.229799329472	520.125998264476	1145.078793719114	149.139983499246	572.878470073469	1037.391913466689	118.036807630844	598.186745289110	1234.391162609787	55.902561078311	602.793447307983	808.383406322845	39.793781179444	396.042944582228	879.146637556819	35.769601186006	312.896396437017	964.225914136159	96.351891066568	336.093387647688	1090.981921239092	41.647197116132	302.756773570524	1097.717471416865	1126.656085707231	94.447341099106	1347.262334976982	1063.343505551914	128.112618466969	938.540769951488	1086.616899031568	684.036568695087	962.401013568592	826.210660629535	698.207961225854	
